# xmcd
#
# Track frame offsets: 
#        183
#        13598
#        30258
#        47675
#        57420
#        68240
#        88318
#        101215
#        115325
#        129828
#        141300
#        153135
#        166710
#        183963
#        198245
#        210643
#        221538
#        234908
#        251503
#        264298
#
# Disc length: 3764 seconds
#
# Revision: 0
# Processed by: cddbd v1.5.2PL0 Copyright (c) Steve Scherf et al.
# Submitted via: ExactAudioCopy v0.99pb4
#
DISCID=0c0eb214
DTITLE=Charlie Rich - Ultimate Collection
DYEAR=1996
DGENRE=Country
TTITLE0=The Most Beautiful Girl
TTITLE1=Big Boss Man
TTITLE2=Life's Little Ups And Downs
TTITLE3=Mohair Sam
TTITLE4=Lonely Weekends
TTITLE5=You Don't Know Me
TTITLE6=I Take It On Home
TTITLE7=Break Up
TTITLE8=On My Knees
TTITLE9=Pass On By
TTITLE10=Rollin' With The Flow
TTITLE11=Sittin' And Thinking
TTITLE12=My Elusive Dreams
TTITLE13=Mountain Dew
TTITLE14=Behind Closed Doors
TTITLE15=There Won't Be Anymore
TTITLE16=Good Time Charlie's Got The Blues
TTITLE17=Who Will The Next Fool Be?
TTITLE18=C C Rider
TTITLE19=I Feel Like Going Home
EXTD=
EXTT0=
EXTT1=
EXTT2=
EXTT3=
EXTT4=
EXTT5=
EXTT6=
EXTT7=
EXTT8=
EXTT9=
EXTT10=
EXTT11=
EXTT12=
EXTT13=
EXTT14=
EXTT15=
EXTT16=
EXTT17=
EXTT18=
EXTT19=
PLAYORDER=
